# xmcd CD database file
#
# Track frame offsets:
#	182
#	20600
#	40392
#	63855
#	84685
#	102612
#	122652
#	152680
#	171392
#	189282
#	210847
#
# Disc length: 3098 seconds
#
# Revision: 0
# Processed by: cddbd v1.5PL3 Copyright (c) Steve Scherf et al.
# Submitted via: CDex 1.51
#
DISCID=8e0c180b
DTITLE=Hilton - Hilton: JAZZ HAPPENS At The HILTON
DYEAR=1999
DGENRE=Jazz
TTITLE0=Into The Blue
TTITLE1=Someone To Love
TTITLE2=Ascension
TTITLE3=Wanting
TTITLE4=Spirit Of The West
TTITLE5=I'll Always Love You
TTITLE6=Sax In The Garden
TTITLE7=It's On
TTITLE8=My All
TTITLE9=Wild Honey
TTITLE10=River Man
EXTD=YEAR: 1999
EXTT0=
EXTT1=
EXTT2=
EXTT3=
EXTT4=
EXTT5=
EXTT6=
EXTT7=
EXTT8=
EXTT9=
EXTT10=
PLAYORDER=
